# xmcd
#
# Track frame offsets: 
#        183
#        30653
#        67563
#        94788
#        114235
#        154220
#        188805
#        224675
#
# Disc length: 3469 seconds
#
# Revision: 3
# Processed by: cddbd v1.5.2PL0 Copyright (c) Steve Scherf et al.
# Submitted via: ExactAudioCopy v0.99pb5
#
DISCID=630d8b08
DTITLE=Steve Turre - Right There
DYEAR=1991
DGENRE=Jazz
TTITLE0=Ginseng People
TTITLE1=Woody and Bu
TTITLE2=Unfinished Rooms
TTITLE3=Echoes of Harlem
TTITLE4=Right There
TTITLE5=Duke's Mountain
TTITLE6=Sanya's
TTITLE7=Descarga De Turre
EXTD=
EXTT0=
EXTT1=
EXTT2=
EXTT3=
EXTT4=
EXTT5=
EXTT6=
EXTT7=
PLAYORDER=
